<svg width="19" height="19" viewBox="0 0 19 19" fill="none" xmlns="http://www.w3.org/2000/svg">
<path fill-rule="evenodd" clip-rule="evenodd" d="M1.10726 1.11442C1.71973 0.504705 2.71261 0.504826 3.32493 1.11469L9.4596 7.22071L15.602 1.10359C16.2141 0.493529 17.207 0.493082 17.8197 1.10259C18.4324 1.7121 18.4328 2.70076 17.8207 3.31082L11.677 9.42921L17.897 15.6886C18.5093 16.2985 18.5092 17.2872 17.8967 17.8969C17.2843 18.5066 16.2914 18.5065 15.6791 17.8966L9.46033 11.6384L3.37713 17.8491C2.76501 18.4592 1.77213 18.4596 1.15946 17.8501C0.546789 17.2406 0.54634 16.252 1.15846 15.6419L7.24293 9.42993L1.10699 3.32264C0.494668 2.71278 0.49479 1.72413 1.10726 1.11442Z" fill="#2F2E36"/>
</svg>
