<svg width="10" height="34" viewBox="0 0 10 34" fill="none" xmlns="http://www.w3.org/2000/svg">
<path d="M9.16671 4.50016C9.16671 6.80135 7.30123 8.66683 5.00004 8.66683C2.69885 8.66683 0.833374 6.80135 0.833374 4.50016C0.833374 2.19898 2.69885 0.333496 5.00004 0.333496C7.30123 0.333496 9.16671 2.19898 9.16671 4.50016Z" fill="white"/>
<path d="M9.16671 17.0002C9.16671 19.3014 7.30123 21.1668 5.00004 21.1668C2.69885 21.1668 0.833374 19.3014 0.833374 17.0002C0.833374 14.699 2.69885 12.8335 5.00004 12.8335C7.30123 12.8335 9.16671 14.699 9.16671 17.0002Z" fill="white"/>
<path d="M9.16671 29.5002C9.16671 31.8014 7.30123 33.6668 5.00004 33.6668C2.69885 33.6668 0.833374 31.8014 0.833374 29.5002C0.833374 27.199 2.69885 25.3335 5.00004 25.3335C7.30123 25.3335 9.16671 27.199 9.16671 29.5002Z" fill="white"/>
</svg>
