<svg width="30" height="30" viewBox="0 0 30 30" fill="none" xmlns="http://www.w3.org/2000/svg">
<path fill-rule="evenodd" clip-rule="evenodd" d="M10 11.25V7.5C10 4.73858 12.2386 2.5 15 2.5C17.7614 2.5 20 4.73858 20 7.5V11.25H22.5C23.8807 11.25 25 12.3693 25 13.75V25C25 26.3807 23.8807 27.5 22.5 27.5H7.5C6.11929 27.5 5 26.3807 5 25V13.75C5 12.3693 6.11929 11.25 7.5 11.25H10ZM17.5 7.5V11.25H12.5V7.5C12.5 6.11929 13.6193 5 15 5C16.3807 5 17.5 6.11929 17.5 7.5ZM7.5 13.75V25H22.5V13.75H7.5Z" fill="white"/>
</svg>
