<!-- <svg width="24" height="24" viewBox="0 0 14 14" fill="none" xmlns="http://www.w3.org/2000/svg">
<path fill-rule="evenodd" clip-rule="evenodd" d="M12.8309 0.21428C13.0669 0.35759 13.1421 0.665118 12.9988 0.901162L5.53309 13.1978L5.5322 13.1992C5.41626 13.3887 5.26206 13.5551 5.0723 13.6744C4.88123 13.7943 4.66054 13.862 4.42888 13.8582C4.42884 13.8582 4.42893 13.8582 4.42888 13.8582C4.1937 13.8544 3.97257 13.7775 3.7833 13.6488C3.59584 13.5211 3.4451 13.3467 3.33393 13.1505L3.33443 13.1514L3.76855 12.9033L3.33331 13.1494L0.994432 9.05641C0.857426 8.81666 0.940722 8.51123 1.18048 8.37422C1.42024 8.23721 1.72567 8.32051 1.86267 8.56027L4.2038 12.6572C4.25049 12.7398 4.30218 12.7923 4.34595 12.8221C4.34604 12.8221 4.34585 12.822 4.34595 12.8221C4.38809 12.8507 4.42162 12.858 4.44523 12.8583C4.4683 12.8587 4.50025 12.8528 4.54049 12.8275C4.58191 12.8015 4.63183 12.7546 4.67881 12.678L12.144 0.382188C12.2873 0.146144 12.5949 0.0709689 12.8309 0.21428Z" fill="black"/>
</svg> -->
<!-- <svg width="64" height="24" viewBox="0 0 14 14" fill="none" xmlns="http://www.w3.org/2000/svg">
<path fill-rule="evenodd" clip-rule="evenodd" d="M12.8309 0.21428C13.0669 0.35759 13.1421 0.665118 12.9988 0.901162L5.53309 13.1978L5.5322 13.1992C5.41626 13.3887 5.26206 13.5551 5.0723 13.6744C4.88123 13.7943 4.66054 13.862 4.42888 13.8582C4.42884 13.8582 4.42893 13.8582 4.42888 13.8582C4.1937 13.8544 3.97257 13.7775 3.7833 13.6488C3.59584 13.5211 3.4451 13.3467 3.33393 13.1505L3.33443 13.1514L3.76855 12.9033L3.33331 13.1494L0.994432 9.05641C0.857426 8.81666 0.940722 8.51123 1.18048 8.37422C1.42024 8.23721 1.72567 8.32051 1.86267 8.56027L4.2038 12.6572C4.25049 12.7398 4.30218 12.7923 4.34595 12.8221C4.34604 12.8221 4.34585 12.822 4.34595 12.8221C4.38809 12.8507 4.42162 12.858 4.44523 12.8583C4.4683 12.8587 4.50025 12.8528 4.54049 12.8275C4.58191 12.8015 4.63183 12.7546 4.67881 12.678L12.144 0.382188C12.2873 0.146144 12.5949 0.0709689 12.8309 0.21428Z" fill="#FDFAFA"/>
</svg> -->
<svg width="30" height="30" viewBox="0 0 30 30" fill="none" xmlns="http://www.w3.org/2000/svg">
<path fill-rule="evenodd" clip-rule="evenodd" d="M28.8279 5.82449C29.6383 6.67342 29.607 8.01854 28.7581 8.82888L12.7169 24.2449C12.3028 24.6402 11.7466 24.8517 11.1744 24.8315C10.6022 24.8112 10.0624 24.5609 9.67727 24.1372L1.84006 15.6756C1.0506 14.8072 1.1146 13.4633 1.983 12.6738C2.8514 11.8844 4.19535 11.9484 4.9848 12.8167L11.3574 19.6673L25.8235 5.75462C26.6725 4.94428 28.0176 4.97556 28.8279 5.82449Z" fill="white"/>
</svg>
